<?xml version="1.0" encoding="utf-8"?>
<!-- Generator: Adobe Illustrator 15.0.2, SVG Export Plug-In . SVG Version: 6.00 Build 0)  -->
<svg version="1.2" baseProfile="tiny" id="Layer_1" xmlns="http://www.w3.org/2000/svg" xmlns:xlink="http://www.w3.org/1999/xlink"
	 x="0px" y="0px" width="12.5px" height="14.052px" viewBox="0 0 12.5 14.052" xml:space="preserve">
<g>
	<path id="checkmark_3_" fill-rule="evenodd" fill="#1A1A1A" d="M3.667,6.873l1.628,3.589c0,0,2.646-7.294,6.82-9.727
		c-0.102,1.737-0.319,3.288,0.393,5.142c-1.832,0.463-5.788,5.626-7.009,8.175c-1.73-2.432-3.737-4.141-5.19-4.863
		c0,0-0.456-0.285-0.206-0.721C0.351,8.034,3.667,6.873,3.667,6.873z"/>
	<linearGradient id="checkmark_4_" gradientUnits="userSpaceOnUse" x1="0.0825" y1="6.6577" x2="12.1025" y2="6.6577">
		<stop  offset="0" style="stop-color:#03653A"/>
		<stop  offset="0.523" style="stop-color:#4AB348"/>
		<stop  offset="1" style="stop-color:#BDDDA3"/>
	</linearGradient>
	<path id="checkmark_2_" fill-rule="evenodd" fill="url(#checkmark_4_)" d="M3.409,6.138l1.628,3.588c0,0,2.646-7.294,6.819-9.726
		c0.912,0.588-1.107,2.811,0.204,5.096c-1.832,0.463-5.598,5.673-6.819,8.22c-3.909-4.982-5.552-3.713-5.08-4.914L3.409,6.138z"/>
	<linearGradient id="checkmark_5_" gradientUnits="userSpaceOnUse" x1="0.3086" y1="7.2471" x2="12.4453" y2="7.2471">
		<stop  offset="0" style="stop-color:#BCDDA5"/>
		<stop  offset="0.477" style="stop-color:#4BB348"/>
		<stop  offset="1" style="stop-color:#03653A"/>
	</linearGradient>
	<path id="checkmark_1_" fill-rule="evenodd" fill="url(#checkmark_5_)" d="M3.667,6.727l1.628,3.735c0,0,2.646-7.442,6.82-9.874
		c-0.102,1.737-0.383,3.281,0.33,5.134c-1.832,0.463-5.725,5.634-6.946,8.183c-1.73-2.434-3.766-4.285-5.19-4.865L3.667,6.727z"/>
</g>
</svg>
